<?xml version="1.0" standalone="no"?>
<!DOCTYPE svg PUBLIC "-//W3C//DTD SVG 20010904//EN"
 "http://www.w3.org/TR/2001/REC-SVG-20010904/DTD/svg10.dtd">
<svg version="1.0" xmlns="http://www.w3.org/2000/svg"
 width="742.000000pt" height="742.000000pt" viewBox="0 0 742.000000 742.000000"
 preserveAspectRatio="xMidYMid meet">

<g transform="translate(0.000000,742.000000) scale(0.100000,-0.100000)"
fill="#000000" stroke="none">
<path d="M2245 6548 c-70 -40 -93 -165 -60 -323 47 -221 191 -462 465 -777
l41 -46 -68 -7 c-82 -9 -199 -46 -271 -86 -135 -78 -340 -313 -368 -423 -6
-27 -6 -28 16 -16 37 20 41 -1 16 -80 -58 -179 -68 -343 -37 -580 36 -267 69
-391 143 -535 55 -109 65 -118 73 -71 4 20 11 36 15 36 5 0 24 -26 44 -57 117
-194 296 -367 496 -480 90 -52 242 -120 325 -146 285 -91 652 -119 970 -72
117 17 140 26 106 44 -29 16 -26 27 8 34 80 16 225 109 335 215 138 133 284
367 368 589 13 35 29 63 37 63 7 0 55 -18 105 -39 130 -55 376 -137 477 -157
l86 -18 37 23 c42 26 71 64 63 84 -3 8 -50 24 -106 36 -56 13 -103 26 -105 30
-2 3 51 4 119 3 l123 -4 4 43 c9 96 -18 194 -64 235 -13 11 -86 46 -163 78
-77 32 -221 94 -320 139 -174 80 -180 83 -188 117 -44 189 -115 303 -242 390
-49 34 -153 70 -200 70 -76 0 -225 -71 -225 -106 0 -8 -6 -14 -14 -14 -11 0
-95 44 -144 76 -2 1 -5 37 -8 80 -6 91 -39 228 -60 245 -8 6 -14 17 -14 23 0
22 -99 111 -157 141 -47 24 -73 30 -141 33 -103 5 -161 -10 -209 -54 -20 -19
-40 -34 -43 -34 -9 0 -137 97 -145 110 -3 5 4 23 16 40 30 40 36 127 15 200
-56 189 -222 360 -394 404 -74 20 -121 20 -192 1 -30 -8 -58 -11 -61 -7 -4 4
-37 45 -75 92 -37 47 -84 103 -103 126 -82 93 -186 230 -215 284 -32 59 -66
74 -111 48z m599 -1464 c152 -37 290 -145 334 -259 45 -116 21 -257 -56 -340
-45 -49 -81 -78 -67 -55 5 8 20 30 33 48 19 25 25 46 26 86 0 48 -4 60 -37
102 -31 39 -37 55 -35 87 2 33 -3 43 -27 62 -57 46 -185 59 -222 22 -20 -20
-11 -45 39 -108 27 -34 55 -58 87 -71 25 -10 55 -24 67 -29 57 -28 72 -132 29
-205 -28 -47 -89 -82 -190 -108 -185 -49 -344 -20 -503 91 -97 68 -129 163
-82 240 24 39 41 49 107 56 59 7 113 31 162 74 42 37 38 60 -14 91 -75 43
-205 18 -205 -40 0 -10 -25 -42 -55 -71 -43 -42 -56 -62 -61 -95 -12 -76 -26
-46 -22 46 3 65 10 99 28 137 31 66 123 153 196 189 33 15 66 32 75 36 15 8
100 25 164 34 48 6 165 -4 229 -20z m-414 -254 c0 -5 -7 -10 -16 -10 -8 0 -12
5 -9 10 3 6 10 10 16 10 5 0 9 -4 9 -10z m495 -50 c-3 -5 -10 -10 -16 -10 -5
0 -9 5 -9 10 0 6 7 10 16 10 8 0 12 -4 9 -10z m480 -15 c26 -22 28 -26 15 -39
-8 -8 -24 -16 -35 -18 -15 -2 -20 4 -26 34 -9 56 0 60 46 23z m739 -532 c55
-36 103 -68 105 -70 19 -15 -144 -187 -202 -213 -39 -18 -59 -17 -84 3 -15 11
-17 107 -3 151 48 152 64 196 73 196 5 0 55 -30 111 -67z"/>
<path d="M2561 4721 c-11 -20 -22 -77 -24 -131 l-2 -35 -58 -5 -59 -5 29 -26
c59 -55 88 -64 218 -64 127 0 152 7 205 57 l25 23 -60 5 -60 5 0 78 c0 104
-14 117 -126 117 -66 0 -80 -3 -88 -19z"/>
<path d="M1813 6088 c-28 -7 -31 -11 -24 -31 5 -12 12 -44 16 -72 4 -27 10
-44 12 -37 9 25 18 11 19 -31 1 -40 50 -145 62 -133 2 3 -1 12 -7 20 -10 12
-9 15 6 13 14 -1 18 -8 15 -31 -3 -36 -2 -37 60 -93 32 -29 53 -41 64 -36 13
5 15 3 9 -7 -6 -10 -3 -12 14 -7 13 3 20 3 17 0 -9 -9 43 -45 57 -40 7 2 34 1
60 -3 26 -4 47 -5 47 -4 0 2 -8 13 -17 24 -12 14 -29 20 -58 19 -29 0 -35 -3
-21 -8 16 -6 17 -9 5 -13 -9 -3 -26 3 -40 13 l-24 19 53 0 c33 0 51 4 47 10
-4 6 -11 8 -16 4 -5 -3 -8 -2 -7 3 4 12 -31 58 -38 50 -4 -4 0 -15 10 -26 16
-18 16 -19 -9 -25 -35 -9 -54 4 -44 29 7 19 8 19 8 -2 1 -13 6 -23 12 -23 7 0
9 10 7 25 -3 14 -1 25 3 25 18 0 8 17 -36 62 -25 26 -45 49 -45 52 0 14 42 4
60 -14 11 -11 28 -20 38 -19 14 0 14 2 -3 9 -11 5 -15 9 -8 9 23 2 42 -11 36
-25 -3 -8 5 -17 21 -24 22 -8 30 -6 47 11 11 11 17 25 13 31 -4 7 -3 8 4 4 18
-11 15 -57 -3 -50 -22 9 -18 -6 7 -27 27 -24 27 -25 23 14 -10 77 -17 107 -31
118 -8 6 -14 16 -14 21 0 5 -10 22 -22 38 -16 23 -27 28 -45 24 -20 -5 -23 -3
-21 17 2 18 -2 24 -14 23 -10 -1 -15 2 -12 7 3 5 -29 25 -70 44 -78 36 -102
42 -91 25 3 -6 -1 -7 -9 -4 -9 3 -13 11 -9 17 3 5 2 7 -4 4 -5 -3 -25 -2 -44
2 -18 4 -48 4 -66 -1z m12 -22 c-18 -13 -18 -14 8 -9 15 3 27 10 27 15 0 6 6
5 15 -2 8 -7 21 -10 28 -7 7 3 24 -3 37 -13 l24 -18 -48 -7 c-27 -4 -57 -16
-68 -27 -11 -11 -21 -18 -22 -16 -1 2 -8 20 -15 42 -11 32 -11 40 0 47 23 14
34 10 14 -5z m203 -29 c8 -10 6 -16 -9 -25 -10 -7 -19 -8 -19 -3 0 5 6 12 13
14 9 4 8 8 -3 16 -8 6 -10 11 -4 11 6 0 16 -6 22 -13z m45 -39 c3 -9 -8 -14
-32 -15 -36 -2 -36 -2 -11 12 31 18 37 18 43 3z m37 -71 c0 -4 4 -6 8 -3 12 7
54 -23 47 -34 -3 -5 -23 1 -45 12 -31 17 -40 28 -40 47 1 25 1 25 15 7 8 -11
15 -24 15 -29z m98 -40 c5 -24 -15 -21 -21 4 -3 13 -1 19 6 16 7 -2 13 -11 15
-20z m-288 -14 c0 -13 -3 -13 -15 -3 -8 7 -15 16 -15 21 0 5 7 6 15 3 8 -4 15
-13 15 -21z m153 0 c-7 -2 -21 -2 -30 0 -10 3 -4 5 12 5 17 0 24 -2 18 -5z
m-178 -22 c3 -5 1 -12 -4 -15 -5 -3 -11 1 -15 9 -6 16 9 21 19 6z m125 -1 c0
-5 -4 -10 -10 -10 -5 0 -10 5 -10 10 0 6 5 10 10 10 6 0 10 -4 10 -10z m160 6
c0 -3 -4 -8 -10 -11 -5 -3 -10 -1 -10 4 0 6 5 11 10 11 6 0 10 -2 10 -4z m50
-6 c0 -5 -4 -10 -10 -10 -5 0 -10 5 -10 10 0 6 5 10 10 10 6 0 10 -4 10 -10z
m-30 -30 c-8 -5 -19 -10 -25 -10 -5 0 -3 5 5 10 8 5 20 10 25 10 6 0 3 -5 -5
-10z m-160 -34 c0 -19 -4 -23 -20 -19 -11 3 -20 0 -20 -6 0 -6 6 -11 13 -11 8
0 8 -3 -2 -9 -20 -13 -41 -2 -41 20 0 17 16 24 43 20 4 -1 10 6 13 14 9 22 14
18 14 -9z m180 14 c0 -5 -3 -10 -7 -10 -5 0 -18 -3 -30 -6 -13 -4 -23 -2 -23
4 0 10 19 18 48 21 6 0 12 -3 12 -9z m-136 -48 c2 -4 -4 -9 -15 -9 -10 -1 -19
2 -19 8 0 11 27 12 34 1z m-84 -53 c0 -14 -5 -11 -31 17 l-24 27 28 -18 c15
-9 27 -21 27 -26z m210 -85 c0 -2 -7 -4 -15 -4 -8 0 -15 4 -15 10 0 5 7 7 15
4 8 -4 15 -8 15 -10z"/>
<path d="M1985 5548 c-22 -6 -43 -16 -47 -22 -4 -6 -10 -7 -14 -4 -8 9 -64
-19 -64 -32 0 -6 -6 -10 -13 -10 -16 0 -86 -59 -70 -60 6 0 15 5 18 10 3 6 12
10 18 10 9 0 9 -2 1 -8 -6 -4 -14 -17 -18 -29 -4 -12 -15 -25 -26 -28 -10 -3
-21 -12 -24 -20 -3 -8 -10 -15 -15 -15 -14 0 -1 38 15 44 8 3 14 11 14 18 0
18 -77 -66 -84 -92 -3 -11 -9 -29 -12 -41 -5 -18 -3 -20 18 -14 12 4 33 17 46
28 19 18 25 19 32 8 12 -21 0 -43 -21 -38 -12 3 -17 1 -13 -5 5 -7 -2 -9 -20
-4 -18 4 -25 3 -21 -3 4 -7 -1 -8 -12 -4 -13 4 -15 3 -8 -5 17 -19 154 -34
264 -30 118 5 210 34 207 66 -1 12 6 16 20 15 14 -2 33 11 54 33 31 34 31 36
8 32 -15 -2 -22 -9 -20 -20 2 -10 -2 -18 -8 -18 -5 0 -10 5 -10 10 0 6 -12 10
-27 11 -16 1 -39 5 -53 10 -17 6 -8 7 28 3 32 -4 52 -2 52 4 0 6 -6 13 -12 15
-8 3 -6 6 5 6 9 1 17 -3 17 -7 0 -5 14 -7 30 -4 28 4 58 35 52 55 -1 4 3 7 8
7 6 0 10 5 10 11 0 7 -7 8 -17 4 -18 -7 -210 -62 -250 -72 -18 -4 -22 -1 -19
18 4 40 23 75 50 97 35 27 33 32 -14 32 -30 0 -40 -4 -40 -16 0 -14 3 -14 15
-4 24 20 28 6 5 -15 -11 -10 -20 -13 -20 -7 0 33 -59 -1 -62 -35 0 -10 -4 2
-7 27 -6 43 -5 46 26 63 20 10 56 17 90 18 44 1 52 3 33 9 -33 10 -47 10 -95
-2z m-65 -68 c0 -5 -4 -10 -9 -10 -17 0 -42 -32 -37 -46 3 -7 1 -16 -4 -19 -6
-4 -10 -1 -10 5 0 6 -4 9 -9 5 -5 -3 -13 0 -17 6 -4 8 -3 9 4 5 7 -4 12 -2 12
5 0 6 10 22 23 35 23 24 47 32 47 14z m0 -50 c0 -5 -5 -10 -11 -10 -5 0 -7 5
-4 10 3 6 8 10 11 10 2 0 4 -4 4 -10z m317 -26 c-3 -3 -12 -4 -19 -1 -8 3 -5
6 6 6 11 1 17 -2 13 -5z m7 -23 c-3 -3 -29 -6 -57 -6 -29 0 -70 -4 -92 -8
l-40 -7 45 14 c43 14 156 19 144 7z m-404 -31 c0 -5 -5 -10 -11 -10 -5 0 -7 5
-4 10 3 6 8 10 11 10 2 0 4 -4 4 -10z m227 -6 c-3 -3 -12 -4 -19 -1 -8 3 -5 6
6 6 11 1 17 -2 13 -5z m-68 -20 c2 -2 -12 -4 -32 -4 -20 0 -38 4 -42 9 -5 9
64 4 74 -5z m176 -14 c3 -5 1 -10 -4 -10 -6 0 -11 5 -11 10 0 6 2 10 4 10 3 0
8 -4 11 -10z m-81 -34 c-3 -8 2 -16 13 -18 10 -3 -1 -5 -24 -6 -24 0 -45 4
-49 9 -3 5 -2 9 3 8 24 -4 43 3 43 17 0 8 4 13 10 9 5 -3 7 -12 4 -19z m-268
-25 c-3 -4 -20 -11 -38 -14 -18 -3 -42 -9 -53 -13 -14 -5 -17 -4 -10 4 18 19
111 40 101 23z m34 -1 c0 -5 -4 -10 -10 -10 -5 0 -10 5 -10 10 0 6 5 10 10 10
6 0 10 -4 10 -10z m165 0 c3 -5 18 -10 33 -11 26 -1 26 -1 -4 -8 -17 -4 -35
-10 -40 -13 -5 -3 -18 -2 -29 3 -16 6 -13 8 15 9 19 1 27 4 18 7 -10 2 -18 9
-18 14 0 12 17 12 25 -1z m-62 -10 c-13 -5 -23 -14 -23 -20 0 -5 -16 -10 -36
-10 -19 0 -33 4 -30 9 3 4 18 6 33 3 25 -5 27 -4 14 11 -12 15 -10 17 25 16
34 0 36 -2 17 -9z"/>
<path d="M2056 5533 c-33 -2 -68 -11 -80 -19 -17 -11 -17 -14 -4 -14 9 0 20 5
23 10 10 17 75 11 101 -9 22 -17 22 -20 6 -26 -9 -5 -24 -9 -32 -11 -8 -2 -20
-11 -27 -21 -7 -10 -17 -24 -23 -30 -8 -10 -7 -13 5 -13 8 0 20 9 27 20 7 11
17 20 22 20 5 0 25 12 44 27 l36 27 -35 12 -34 12 33 1 c19 1 31 5 27 11 -3 6
-12 9 -18 8 -7 -1 -39 -3 -71 -5z"/>
<path d="M2160 5503 c0 -10 4 -14 8 -8 4 6 11 13 16 18 5 4 2 7 -7 7 -10 0
-17 -8 -17 -17z"/>
<path d="M5070 3631 c0 -26 67 -31 83 -7 5 8 9 8 15 0 4 -6 27 -15 52 -18 33
-5 41 -4 30 3 -8 6 -24 11 -35 12 -17 1 -16 2 5 9 17 5 6 7 -35 5 -33 -1 -69
-5 -79 -10 -14 -6 -17 -5 -12 3 4 7 1 12 -8 12 -9 0 -16 -4 -16 -9z"/>
<path d="M5273 3606 c1 -7 -13 -11 -38 -10 -22 1 -34 -1 -27 -3 6 -3 12 -8 12
-13 0 -10 -76 -5 -94 7 -6 4 2 -4 19 -19 16 -15 41 -33 55 -40 14 -7 30 -20
37 -29 7 -9 28 -24 48 -33 29 -14 39 -15 51 -5 8 6 17 9 21 6 3 -4 -2 -10 -12
-14 -18 -6 -18 -7 1 -14 15 -6 12 -8 -11 -7 -16 1 -40 -2 -52 -6 -12 -4 -24
-2 -28 3 -4 7 1 8 12 4 10 -3 15 -2 10 2 -10 11 -77 13 -70 2 3 -5 -3 -7 -13
-4 -33 9 -79 20 -86 21 -3 1 -10 5 -15 10 -5 5 2 6 17 2 14 -3 39 -9 55 -12
l30 -6 -25 14 c-14 8 -32 15 -40 16 -8 0 -25 4 -36 7 -19 6 -21 3 -17 -19 3
-14 11 -26 18 -26 7 0 15 -7 19 -15 3 -8 1 -15 -5 -15 -10 0 22 -52 46 -75 25
-25 69 -55 80 -55 19 0 13 34 -9 46 -16 9 -4 12 57 12 43 1 77 -3 77 -8 0 -6
-17 -10 -37 -10 -45 0 -58 -8 -67 -37 -6 -19 -3 -23 31 -28 21 -3 51 -8 67
-11 18 -2 47 4 73 17 24 12 47 19 50 15 3 -3 -18 -16 -47 -28 -43 -18 -49 -23
-34 -29 11 -4 26 -8 34 -8 13 -1 13 0 0 9 -9 6 -10 10 -3 10 6 0 14 -4 18 -10
3 -5 31 -8 63 -6 70 5 75 6 37 16 -25 6 -22 8 24 9 53 1 53 1 46 29 -3 15 -13
34 -21 43 -8 8 -14 22 -14 31 0 8 -30 54 -67 102 -58 76 -68 85 -82 73 -14
-12 -19 -11 -34 6 -19 19 -18 19 2 12 30 -9 27 13 -4 27 -14 6 -25 15 -25 20
0 5 -4 6 -10 3 -5 -3 -10 -2 -10 3 0 5 -18 14 -40 20 -28 7 -39 7 -37 -2z
m-13 -41 c-39 -29 -53 -31 -70 -10 -8 9 -8 15 -2 15 6 0 12 -5 14 -12 3 -9 15
-6 39 10 47 30 61 28 19 -3z m20 -24 c0 -5 -6 -12 -12 -15 -9 -3 -8 -8 5 -16
9 -6 14 -16 11 -22 -4 -7 -13 -2 -24 12 -13 18 -15 27 -6 36 13 16 26 18 26 5z
m71 -51 c6 0 8 4 5 8 -2 4 6 9 18 10 14 1 23 -4 23 -13 0 -8 -3 -15 -6 -16 -3
0 -27 -2 -53 -4 -47 -2 -47 -2 -25 16 12 9 24 13 25 8 2 -5 8 -9 13 -9z m136
-37 c4 -10 11 -21 17 -25 7 -5 6 -11 -3 -20 -9 -8 -11 -9 -7 -1 3 6 2 14 -4
18 -17 10 -32 45 -20 45 6 0 14 -8 17 -17z m-319 -32 c11 -6 9 -9 -7 -14 -12
-3 -22 1 -25 9 -6 16 12 18 32 5z m52 -22 c0 -5 -4 -7 -10 -4 -5 3 -10 -2 -10
-11 0 -10 -3 -15 -6 -11 -9 9 3 37 16 37 5 0 10 -5 10 -11z m-50 -35 c0 -8 -4
-12 -10 -9 -5 3 -10 13 -10 21 0 8 5 12 10 9 6 -3 10 -13 10 -21z m390 -31 c0
-13 9 -28 20 -35 30 -19 26 -39 -5 -25 -20 10 -25 19 -25 50 0 20 -4 37 -10
37 -5 0 -10 -5 -10 -12 0 -6 -2 -9 -5 -7 -2 3 -2 15 2 27 5 21 6 21 19 5 7
-10 14 -28 14 -40z m-325 18 c-6 -5 -25 10 -25 20 0 5 6 4 14 -3 8 -7 12 -15
11 -17z m-35 -11 c0 -5 -5 -10 -11 -10 -5 0 -7 5 -4 10 3 6 8 10 11 10 2 0 4
-4 4 -10z m348 -69 c14 -15 13 -16 -14 -19 -16 -2 -32 -8 -35 -14 -4 -5 -15
-8 -25 -5 -17 4 -17 6 3 12 13 4 21 11 18 15 -3 5 4 6 15 3 16 -4 19 -1 16 28
-2 19 -1 25 1 15 3 -11 12 -26 21 -35z m-180 -8 c16 -16 16 -16 -3 -9 -11 5
-33 12 -50 16 l-30 8 33 1 c19 1 41 -6 50 -16z"/>
<path d="M5145 3600 c-4 -6 6 -10 22 -10 22 0 25 2 13 10 -19 12 -27 12 -35 0z"/>
<path d="M4838 3510 c-26 -27 -43 -52 -37 -55 5 -4 9 -14 9 -23 0 -12 -3 -13
-8 -5 -11 17 -29 3 -37 -29 -5 -20 -2 -31 14 -45 16 -13 21 -28 19 -58 l-1
-40 -7 45 -7 45 -1 -44 c-2 -55 -10 -50 -16 9 -6 67 -23 59 -30 -13 -7 -64 0
-137 13 -137 4 0 6 -16 6 -35 -1 -20 6 -58 15 -84 17 -51 73 -117 90 -106 5 3
10 2 10 -3 0 -6 -7 -12 -15 -16 -8 -3 -15 -10 -15 -16 0 -6 18 2 40 16 43 28
54 42 19 24 -19 -11 -20 -10 -9 10 7 14 17 19 27 16 20 -8 43 11 43 35 0 11 5
19 10 19 10 0 67 115 74 148 1 9 6 30 11 46 5 20 4 31 -6 37 -11 7 -10 9 4 9
9 0 17 4 17 10 0 5 -7 7 -15 4 -8 -4 -15 -2 -15 4 0 6 6 12 13 15 9 3 9 9 -1
26 -7 12 -10 26 -6 32 3 5 -2 21 -11 35 -9 13 -14 28 -11 32 2 4 -7 21 -21 37
-15 18 -23 23 -19 12 3 -10 6 -25 6 -33 0 -9 4 -13 8 -10 5 3 9 0 9 -7 0 -7 4
-25 8 -41 6 -22 5 -28 -6 -24 -8 3 -17 21 -20 41 -6 35 -18 61 -20 41 -5 -61
-3 -81 7 -77 23 9 24 -17 4 -57 -31 -60 -38 -49 -12 19 3 9 1 12 -6 7 -12 -7
-15 2 -13 39 1 11 -8 -2 -19 -30 -11 -27 -18 -54 -16 -60 2 -5 -9 -11 -25 -12
-27 -2 -29 0 -29 37 0 22 4 40 10 40 6 0 9 33 8 80 -1 44 -5 80 -10 80 -4 0
-8 5 -8 11 0 5 5 7 12 3 7 -5 9 -2 5 8 -3 9 0 21 6 27 6 6 9 11 6 11 -2 0 -25
-22 -51 -50z m27 -19 c3 -5 1 -13 -5 -16 -7 -4 -8 -30 -4 -71 5 -45 3 -64 -5
-64 -6 0 -11 -15 -11 -34 0 -43 -17 -89 -29 -81 -12 7 -2 108 11 113 4 2 8 13
8 25 0 18 2 19 10 7 7 -11 10 -7 10 18 0 17 -4 32 -9 32 -14 0 -18 32 -7 58
10 23 21 28 31 13z m-78 -103 c-3 -8 -6 -5 -6 6 -1 11 2 17 5 13 3 -3 4 -12 1
-19z m163 -94 c0 -8 -4 -14 -10 -14 -5 0 -10 9 -10 21 0 11 5 17 10 14 6 -3
10 -13 10 -21z m-185 -76 c5 -24 3 -38 -3 -38 -5 0 -12 20 -14 45 -4 52 7 47
17 -7z m255 17 c-12 -15 -30 -12 -30 6 0 5 10 9 21 9 18 0 19 -2 9 -15z m-233
-27 c-3 -8 -6 -5 -6 6 -1 11 2 17 5 13 3 -3 4 -12 1 -19z m193 -28 c16 -5 2
-6 -35 -3 -33 3 -62 7 -64 9 -8 7 74 2 99 -6z m-120 -35 c0 -28 -4 -35 -20
-35 -16 0 -20 7 -20 35 0 28 4 35 20 35 16 0 20 -7 20 -35z m155 -10 c-14 -39
-14 -39 -15 -9 0 16 5 35 12 42 18 18 18 10 3 -33z m-238 -17 c-2 -13 -4 -5
-4 17 -1 22 1 32 4 23 2 -10 2 -28 0 -40z m20 10 c-3 -8 -6 -5 -6 6 -1 11 2
17 5 13 3 -3 4 -12 1 -19z m183 -7 c0 -10 -8 -25 -17 -32 -16 -12 -17 -12 -5
2 7 9 10 24 6 33 -3 9 -1 16 5 16 6 0 11 -8 11 -19z m-181 -91 c1 -13 0 -13
-9 0 -5 8 -9 26 -9 40 l1 25 8 -25 c4 -14 8 -32 9 -40z m176 20 c-4 -12 -9
-19 -12 -17 -3 3 -2 15 2 27 4 12 9 19 12 17 3 -3 2 -15 -2 -27z m-120 -20
c-7 -12 12 -40 27 -40 6 0 8 7 5 14 -4 10 -1 13 9 9 18 -7 18 -11 0 -29 -16
-15 -40 -10 -69 14 -16 14 -16 16 5 28 30 16 30 16 23 4z m95 -30 c0 -5 -5
-10 -11 -10 -5 0 -7 5 -4 10 3 6 8 10 11 10 2 0 4 -4 4 -10z"/>
<path d="M4820 2919 c0 -5 5 -7 10 -4 6 3 10 8 10 11 0 2 -4 4 -10 4 -5 0 -10
-5 -10 -11z"/>
<path d="M4845 2568 c-10 -6 -33 -14 -50 -18 -16 -3 -30 -11 -29 -18 1 -7 2
-47 3 -89 1 -52 4 -74 11 -67 13 13 100 182 100 194 0 13 -10 12 -35 -2z"/>
<path d="M3990 2438 c-30 -5 -129 -20 -220 -34 -91 -13 -175 -29 -187 -34 -22
-9 -23 -15 -23 -111 l0 -102 83 8 c45 4 87 7 92 8 14 3 9 -165 -10 -387 -8
-98 -13 -181 -11 -183 5 -5 217 24 223 31 2 2 -1 72 -8 157 -6 85 -14 207 -17
273 -8 139 -14 131 109 141 76 6 77 7 83 37 3 17 6 70 6 119 l0 89 -32 -1
c-18 -1 -58 -6 -88 -11z"/>
<path d="M4567 2427 c-102 -11 -91 7 -107 -177 -18 -206 -18 -207 -43 -214
-12 -3 -32 -6 -43 -6 -19 0 -21 5 -19 33 2 17 6 103 10 190 4 115 2 157 -6
157 -10 0 -110 -15 -164 -26 -19 -3 -20 -9 -17 -76 2 -40 -1 -208 -7 -373 -6
-164 -9 -301 -6 -303 2 -2 38 2 80 9 50 8 79 17 84 28 5 9 11 60 13 114 3 54
9 102 14 106 5 5 22 11 38 15 l29 7 -7 -98 c-4 -54 -9 -113 -13 -130 -5 -30
-3 -33 18 -32 13 0 51 10 84 22 l60 22 11 95 c28 233 59 449 83 585 5 28 6 52
3 55 -4 3 -46 2 -95 -3z"/>
<path d="M2646 2313 c-4 -43 -11 -118 -16 -168 -20 -192 -41 -477 -36 -491 4
-11 36 -14 165 -14 93 0 162 4 166 10 3 5 3 44 -1 86 l-7 76 -80 -7 -80 -7 7
74 c4 40 11 98 16 128 12 72 40 307 40 342 0 29 -6 31 -112 43 l-56 6 -6 -78z"/>
<path d="M2215 2351 c-69 -32 -139 -104 -149 -152 -11 -54 -7 -129 8 -158 28
-53 79 -87 183 -120 112 -36 143 -53 143 -81 0 -52 -41 -78 -110 -72 -33 3
-52 15 -99 57 l-57 54 -32 -54 c-18 -29 -32 -59 -32 -66 0 -25 74 -101 123
-126 62 -31 165 -42 221 -23 89 29 156 131 156 237 0 109 -61 168 -219 212
-96 27 -123 45 -119 78 5 42 59 65 143 60 39 -2 77 -7 85 -11 13 -5 16 8 18
84 4 89 3 90 -23 100 -14 5 -61 10 -103 10 -63 -1 -88 -6 -137 -29z"/>
<path d="M3188 2351 c-85 -54 -136 -126 -173 -241 -49 -156 -39 -310 25 -411
44 -67 90 -93 166 -93 126 1 211 63 266 195 26 63 31 90 35 184 5 99 3 117
-20 181 -67 191 -179 261 -299 185z m149 -250 c18 -34 23 -60 23 -113 0 -107
-40 -182 -104 -194 -106 -19 -159 107 -104 251 28 74 67 107 121 103 37 -3 43
-7 64 -47z"/>
<path d="M4990 2373 c-139 -47 -210 -131 -211 -248 -2 -103 51 -157 198 -204
127 -41 145 -53 141 -94 -2 -25 -10 -35 -38 -48 -58 -27 -102 -15 -168 46
l-57 52 -34 -55 -34 -55 19 -34 c57 -107 237 -165 350 -114 114 52 173 227
108 327 -34 53 -76 78 -180 108 -100 29 -134 48 -134 76 0 22 24 48 57 61 31
12 125 12 156 0 22 -9 25 -7 31 21 3 17 6 57 6 89 0 55 -2 60 -26 69 -26 10
-157 12 -184 3z"/>
<path d="M1990 1510 c17 -5 19 -8 8 -9 -23 -1 -24 -46 -2 -68 11 -11 13 -24 8
-42 -4 -14 -7 -34 -8 -43 0 -21 -7 -23 -23 -7 -7 7 -9 37 -6 84 4 50 2 74 -6
79 -11 7 -102 -4 -286 -35 -128 -21 -116 -12 -114 -87 1 -37 7 -70 13 -74 7
-5 4 -8 -6 -8 -10 0 -18 -4 -18 -9 0 -5 27 -9 60 -10 50 0 60 2 61 17 0 10 3
12 6 5 2 -7 9 -13 14 -13 6 0 8 4 5 9 -3 5 8 11 24 15 31 6 42 26 14 26 -9 0
-12 -5 -8 -11 5 -8 -12 -10 -59 -7 -54 3 -67 1 -71 -12 -2 -8 -4 -2 -5 13 0
16 -5 26 -11 22 -5 -3 -10 1 -10 9 0 9 5 16 10 16 6 0 10 11 10 25 0 20 5 25
28 26 l27 1 -30 8 c-28 7 -28 8 -5 9 36 1 71 -10 64 -20 -3 -5 -21 -9 -40 -9
-32 0 -34 -2 -34 -34 0 -30 4 -34 31 -40 47 -9 81 -7 74 4 -4 6 5 10 20 10 14
0 28 -7 31 -15 4 -8 15 -15 26 -15 10 0 16 -4 13 -10 -3 -5 0 -10 8 -10 10 0
13 -7 10 -20 -3 -13 -14 -20 -28 -20 -14 0 -25 -7 -28 -17 -4 -16 -5 -16 -12
1 -6 13 -4 21 3 24 7 2 12 16 12 30 -1 23 -2 25 -13 11 -7 -9 -18 -14 -26 -11
-9 3 -11 0 -6 -7 4 -7 8 -44 9 -84 1 -40 5 -80 10 -89 5 -11 4 -18 -2 -18 -6
0 -13 8 -15 18 -3 9 -5 -10 -5 -43 0 -33 2 -51 5 -40 11 44 26 40 18 -5 -17
-107 -17 -156 0 -170 8 -7 18 -10 22 -6 3 3 1 6 -5 6 -14 0 -15 66 -1 95 8 17
9 16 4 -7 -3 -14 -2 -39 1 -56 5 -25 12 -31 41 -35 65 -11 67 -7 59 122 -21
365 -22 327 5 334 13 4 52 7 87 7 l62 0 1 33 c1 17 3 62 5 100 l3 67 -27 -1
-27 -1 25 -8z m-160 -40 c-8 -5 -22 -10 -30 -10 -13 0 -13 1 0 10 8 5 22 10
30 10 13 0 13 -1 0 -10z m-35 -17 c56 -7 57 -13 3 -13 -25 0 -61 -2 -79 -5
-28 -4 -30 -4 -14 5 16 9 14 10 -15 6 l-35 -5 30 14 c17 8 39 12 50 9 11 -3
38 -8 60 -11z m45 -50 c0 -20 -3 -24 -9 -14 -5 7 -14 10 -20 7 -6 -4 -11 -1
-11 8 0 8 -12 16 -27 19 -17 2 -10 5 20 6 45 1 47 0 47 -26z m-203 -109 c-3
-3 -12 -4 -19 -1 -8 3 -5 6 6 6 11 1 17 -2 13 -5z m120 -201 c-2 -21 -4 -6 -4
32 0 39 2 55 4 38 2 -18 2 -50 0 -70z m63 47 c0 -11 -4 -20 -10 -20 -5 0 -10
9 -10 20 0 11 5 20 10 20 6 0 10 -9 10 -20z m20 -80 c0 -40 -15 -54 -26 -25
-8 20 4 65 16 65 6 0 10 -18 10 -40z"/>
<path d="M4105 1504 c-22 -6 -48 -14 -58 -18 -9 -5 -29 -5 -43 -2 -17 5 -23 3
-19 -4 3 -5 19 -10 35 -10 16 0 32 -4 35 -10 7 -11 -18 -13 -64 -4 -17 4 -28
11 -25 16 7 12 -70 5 -131 -11 l-40 -10 45 4 c25 2 55 7 65 11 11 4 17 4 13
-1 -14 -15 -114 -33 -132 -23 -22 12 -36 0 -16 -12 10 -7 11 -10 3 -10 -9 0
-13 -17 -13 -50 l0 -51 38 7 c20 4 43 12 51 18 11 8 13 8 7 -1 -5 -9 0 -13 16
-13 21 0 21 -1 5 -17 -15 -15 -19 -16 -26 -4 -11 18 -91 5 -91 -15 0 -11 13
-12 63 -7 113 11 112 11 110 -17 -1 -14 4 -43 12 -65 14 -42 25 -185 14 -185
-4 0 -12 14 -19 31 -20 48 -31 16 -26 -76 3 -54 2 -67 -3 -40 -8 40 -8 40 -10
-16 -1 -51 1 -57 24 -67 14 -7 32 -12 40 -12 19 0 8 -28 -13 -33 -12 -3 -10
-5 6 -6 12 0 22 3 22 8 0 5 7 12 16 15 8 3 12 2 9 -4 -4 -6 7 -10 26 -10 26 0
31 3 26 20 -3 11 -1 23 4 26 5 3 7 27 4 52 -6 59 -18 250 -20 318 -1 50 -23
92 -40 76 -4 -4 -5 0 -3 8 3 8 -2 23 -11 33 -15 18 -14 18 14 11 17 -4 35 -11
41 -16 6 -4 48 -11 93 -15 71 -5 81 -4 81 11 0 9 -4 16 -10 16 -5 0 -10 8 -10
18 0 14 2 15 10 2 7 -10 10 10 10 67 l0 82 -37 -2 c-21 -1 -56 -7 -78 -13z
m75 -26 c0 -5 -4 -7 -9 -3 -5 3 -12 -9 -14 -27 -3 -23 -4 -18 -4 14 1 38 3 45
14 36 7 -6 13 -15 13 -20z m25 22 c4 -6 3 -34 -1 -63 -5 -40 -9 -47 -15 -32
-7 19 -8 19 -8 1 -1 -11 -4 -16 -8 -13 -3 4 -1 17 5 30 16 33 20 76 8 81 -7 3
-7 5 1 5 6 1 15 -4 18 -9z m-205 -65 c0 -8 -5 -15 -11 -15 -5 0 -7 5 -3 11 5
9 -10 10 -57 6 -41 -4 -57 -3 -44 3 11 5 41 9 68 9 35 1 47 -3 47 -14z m80 5
c0 -5 -5 -10 -11 -10 -5 0 -7 5 -4 10 3 6 8 10 11 10 2 0 4 -4 4 -10z m-123
-16 c-3 -3 -12 -4 -19 -1 -8 3 -5 6 6 6 11 1 17 -2 13 -5z m-77 -14 c0 -5 -10
-10 -22 -10 -12 0 -30 -8 -40 -17 -21 -19 -45 -5 -35 21 7 18 97 23 97 6z m96
-132 c-7 -68 -26 -104 -26 -50 0 18 5 32 10 32 17 0 11 52 -7 66 -17 12 -16
13 6 14 23 0 24 -1 17 -62z m49 -179 c-3 -188 -14 -257 -17 -103 -2 144 -4
187 -11 229 l-7 40 10 -39 c14 -53 24 -61 17 -13 -5 33 -1 67 8 67 1 0 2 -81
0 -181z m12 19 c-2 -13 -4 -5 -4 17 -1 22 1 32 4 23 2 -10 2 -28 0 -40z m-37
-88 c0 -5 -5 -10 -11 -10 -5 0 -7 5 -4 10 3 6 8 10 11 10 2 0 4 -4 4 -10z
m-52 -121 c-3 -42 0 -49 17 -53 14 -3 12 -4 -5 -3 -14 1 -24 5 -22 10 1 4 3
40 3 80 1 39 4 59 6 43 3 -16 3 -51 1 -77z m93 -47 c-6 -2 -9 -8 -5 -13 3 -5
-5 -9 -18 -8 -13 0 -17 3 -10 6 6 2 10 9 6 14 -3 5 0 8 8 7 8 -2 15 9 17 27
l5 30 4 -30 c2 -16 -1 -31 -7 -33z"/>
<path d="M3580 1477 c-32 -16 -50 -52 -41 -85 7 -25 11 -27 61 -27 34 0 55 5
58 13 3 9 -2 10 -22 2 -17 -6 -26 -6 -26 0 0 10 9 13 49 14 18 1 26 8 32 29
15 54 -50 85 -111 54z m53 -7 c-33 -13 -28 -24 7 -16 17 3 30 1 30 -4 0 -6 -5
-10 -10 -10 -6 0 -20 -9 -32 -20 -12 -11 -32 -20 -44 -20 -13 0 -24 8 -27 20
-3 11 -1 20 4 20 5 0 9 -4 9 -10 0 -14 37 -13 46 1 4 8 -1 9 -17 5 -13 -3 -18
-3 -11 0 17 8 15 25 -3 18 -8 -4 -15 -1 -15 4 0 11 27 19 65 20 18 1 18 0 -2
-8z m47 -50 c0 -5 -4 -10 -10 -10 -5 0 -10 5 -10 10 0 6 5 10 10 10 6 0 10 -4
10 -10z m-80 -46 c0 -2 -9 -4 -20 -4 -11 0 -20 4 -20 9 0 5 9 7 20 4 11 -3 20
-7 20 -9z"/>
<path d="M2420 1455 c0 -8 -5 -15 -11 -15 -5 0 -8 4 -5 9 3 4 -11 7 -32 5 -30
-2 -235 -13 -264 -14 -5 0 -8 -33 -8 -73 0 -41 -4 -109 -10 -153 -5 -43 -11
-142 -13 -219 l-3 -140 188 -2 188 -2 0 65 c0 59 -2 65 -18 59 -11 -3 -61 -8
-112 -10 -51 -3 -101 -10 -111 -15 -29 -16 -33 -11 -8 10 21 17 22 21 9 30
-10 7 -12 12 -4 18 12 8 12 61 0 80 -4 7 -4 12 1 11 4 -1 25 -1 47 0 28 1 37
5 33 15 -3 8 2 17 11 21 9 3 18 1 20 -4 6 -18 21 -13 21 7 0 9 2 32 5 50 5 28
3 32 -15 32 -17 0 -19 -3 -11 -13 9 -10 6 -17 -8 -30 -24 -20 -43 -22 -38 -5
3 7 15 15 29 19 19 4 12 7 -28 13 -58 9 -55 3 -55 101 0 30 1 59 1 64 1 4 40
9 89 10 94 2 120 13 88 37 -19 14 -19 14 1 14 12 0 24 -8 26 -17 2 -10 3 -8 2
5 -1 12 2 22 6 22 5 0 9 7 9 15 0 8 -4 15 -10 15 -5 0 -10 -7 -10 -15z m-72
-26 c-10 -5 -26 -5 -40 0 -20 7 -17 9 16 9 29 0 36 -2 24 -9z m-192 -35 c0
-20 5 -39 11 -42 8 -5 7 -14 -2 -32 -13 -24 -13 -23 -20 24 -7 46 -18 51 -28
11 -3 -11 -5 1 -6 28 -1 42 1 47 22 47 18 0 22 -6 23 -36z m94 29 c-14 -3 -29
-11 -33 -19 -9 -16 -26 -18 -46 -5 -26 16 0 31 52 30 29 -1 41 -4 27 -6z m113
-20 c-24 -2 -62 -2 -85 0 -24 2 -5 4 42 4 47 0 66 -2 43 -4z m-159 -98 c-4 -8
-8 -15 -10 -15 -2 0 -4 7 -4 15 0 8 4 15 10 15 5 0 7 -7 4 -15z m-77 -92 c-2
-21 -4 -6 -4 32 0 39 2 55 4 38 2 -18 2 -50 0 -70z m34 7 l-9 -45 -1 37 c-1
20 2 44 6 54 11 29 14 2 4 -46z m43 4 c4 -9 4 -19 1 -22 -3 -3 -5 0 -5 6 0 7
-7 12 -15 12 -8 0 -15 5 -15 10 0 16 27 11 34 -6z m-20 -29 c3 -8 1 -15 -4
-15 -6 0 -10 7 -10 15 0 8 2 15 4 15 2 0 6 -7 10 -15z m71 -23 c-3 -3 -11 0
-18 7 -9 10 -8 11 6 5 10 -3 15 -9 12 -12z m-72 -117 c-7 -26 -20 -34 -44 -28
-29 8 -24 31 6 25 22 -4 25 -1 25 24 0 22 3 26 10 14 5 -8 7 -24 3 -35z m7
-40 c-7 -9 -15 -13 -19 -10 -3 3 1 10 9 15 21 14 24 12 10 -5z m-47 -11 c-7
-19 18 -38 29 -21 4 6 10 8 14 4 4 -4 -1 -15 -10 -26 -12 -13 -14 -21 -6 -26
5 -3 8 -11 4 -16 -3 -5 0 -8 8 -7 7 2 12 -3 11 -9 -2 -7 2 -13 8 -13 5 0 7 -4
4 -10 -3 -5 -17 -10 -30 -10 -21 0 -25 6 -31 45 -3 25 -10 45 -15 45 -10 0
-12 43 -2 53 12 13 22 7 16 -9z m181 -53 c4 -5 -3 -7 -14 -4 -23 6 -26 13 -6
13 8 0 17 -4 20 -9z m81 -1 c-3 -5 -1 -10 4 -10 6 0 11 -5 11 -11 0 -8 -5 -8
-15 1 -13 11 -12 30 1 30 3 0 2 -4 -1 -10z m32 -72 c-2 -13 -4 -3 -4 22 0 25
2 35 4 23 2 -13 2 -33 0 -45z m-37 30 c0 -4 -18 -8 -41 -8 -22 0 -38 4 -35 8
2 4 21 8 40 8 20 0 36 -4 36 -8z m-263 -30 c-3 -8 -6 -5 -6 6 -1 11 2 17 5 13
3 -3 4 -12 1 -19z m183 -8 c0 -5 -18 -10 -40 -10 -22 0 -40 5 -40 10 0 6 18
10 40 10 22 0 40 -4 40 -10z"/>
<path d="M2160 890 c0 -5 5 -10 10 -10 6 0 10 5 10 10 0 6 -4 10 -10 10 -5 0
-10 -4 -10 -10z"/>
<path d="M5375 1460 c-4 -7 -3 -15 3 -19 8 -5 8 -16 2 -36 -10 -29 -10 -29 -6
-3 4 34 -16 42 -46 19 -13 -10 -31 -20 -40 -24 -21 -8 -23 -21 -5 -39 7 -7 18
-25 24 -41 7 -15 18 -26 24 -25 6 2 15 -8 20 -21 8 -21 8 -22 -7 -10 -16 13
-16 12 -5 -9 7 -12 16 -20 22 -17 5 4 9 -3 9 -14 0 -10 16 -49 35 -85 20 -37
30 -68 25 -71 -6 -3 -10 -16 -10 -27 0 -12 -3 -18 -6 -15 -6 6 -64 -65 -64
-78 0 -2 8 -2 18 1 14 5 14 4 2 -4 -8 -6 -17 -9 -21 -6 -4 2 -17 -9 -28 -25
l-21 -29 30 -22 c16 -12 35 -18 41 -14 8 4 9 3 5 -4 -8 -13 30 -36 44 -27 6 3
10 15 10 26 0 11 4 18 9 15 11 -7 61 75 61 98 0 9 7 16 16 16 11 0 14 6 9 23
-4 15 -3 18 3 8 7 -10 20 0 52 44 l42 58 -16 33 c-8 19 -11 34 -6 34 6 0 10
-6 10 -12 0 -7 5 -5 11 5 5 9 15 17 21 17 6 0 3 -11 -6 -25 -17 -26 -9 -34 12
-13 17 17 15 45 -5 79 -19 32 -18 35 20 44 18 5 27 3 27 -5 0 -6 -4 -8 -10 -5
-5 3 -10 1 -10 -4 0 -6 5 -11 11 -11 6 0 8 -9 4 -20 -3 -11 -4 -20 -2 -20 7 0
107 151 107 161 0 17 -36 27 -75 20 -33 -6 -36 -8 -19 -14 12 -4 28 -5 36 -2
19 8 37 -15 29 -37 -4 -13 -10 -15 -21 -8 -13 9 -13 11 0 20 12 8 11 10 -7 10
-13 0 -22 -3 -20 -8 1 -4 -2 -7 -8 -7 -5 0 -9 3 -7 8 1 4 -4 7 -12 7 -7 0 -19
7 -26 15 -9 10 -9 15 -1 15 6 0 11 7 11 15 0 7 7 18 16 23 12 7 13 11 5 17 -7
4 -13 5 -15 4 -46 -72 -55 -90 -50 -102 3 -9 -3 -16 -15 -20 -14 -3 -21 -13
-21 -31 0 -16 -5 -24 -12 -21 -7 3 -18 -6 -25 -20 -13 -29 -7 -32 19 -8 10 9
18 12 18 7 0 -16 -23 -34 -43 -34 -17 0 -47 22 -47 34 0 4 -14 31 -31 62 -23
40 -34 52 -40 42 -7 -10 -9 -10 -9 0 0 6 -7 12 -15 12 -12 0 -14 7 -9 28 9 37
14 40 14 9 0 -15 5 -27 11 -27 13 0 3 35 -21 74 -12 19 -20 24 -25 16z m-15
-40 c0 -5 -5 -10 -11 -10 -5 0 -7 5 -4 10 3 6 8 10 11 10 2 0 4 -4 4 -10z m0
-42 c0 -13 -23 -5 -28 10 -2 7 2 10 12 6 9 -3 16 -11 16 -16z m-47 -5 c-7 -2
-19 -2 -25 0 -7 3 -2 5 12 5 14 0 19 -2 13 -5z m66 -25 c-1 -1 3 -14 10 -27
11 -19 11 -22 0 -16 -9 6 -11 4 -6 -7 4 -12 1 -14 -15 -10 -14 3 -19 11 -15
27 3 16 0 22 -10 18 -7 -3 -13 -12 -13 -21 0 -8 -3 -13 -6 -9 -12 12 8 46 29
49 22 4 31 3 26 -4z m290 -40 c-13 -5 -34 -19 -46 -30 -20 -18 -23 -19 -23 -5
0 9 5 17 11 17 6 0 22 9 36 20 14 11 30 17 36 13 6 -3 0 -10 -14 -15z m-189
-65 c0 -7 -9 -22 -21 -34 -17 -17 -18 -23 -7 -36 11 -14 11 -15 -2 -11 -11 3
-14 17 -13 49 2 24 3 54 4 67 l1 23 19 -22 c10 -12 19 -28 19 -36z m-57 10
c-7 -2 -21 -2 -30 0 -10 3 -4 5 12 5 17 0 24 -2 18 -5z m-11 -55 c-15 -15 -26
-4 -18 18 5 13 9 15 18 6 9 -9 9 -15 0 -24z m73 -8 c3 -5 1 -10 -4 -10 -6 0
-11 5 -11 10 0 6 2 10 4 10 3 0 8 -4 11 -10z m80 0 c3 -5 -3 -10 -15 -10 -12
0 -18 5 -15 10 3 6 10 10 15 10 5 0 12 -4 15 -10z m40 0 c3 -5 1 -10 -4 -10
-6 0 -11 5 -11 10 0 6 2 10 4 10 3 0 8 -4 11 -10z m-184 -32 c18 -20 25 -38
15 -38 -3 0 -14 14 -26 30 -25 34 -16 41 11 8z m100 -70 c0 -31 1 -32 11 -10
6 12 15 22 19 22 4 0 1 -12 -7 -27 -7 -16 -14 -33 -14 -39 0 -5 -13 -23 -30
-39 -16 -16 -30 -35 -30 -42 0 -7 -7 -13 -16 -13 -12 0 -10 7 10 31 18 21 26
42 26 67 0 73 29 119 31 50z m48 -32 c-12 -20 -24 -35 -26 -32 -3 3 5 21 17
41 29 47 37 39 9 -9z m-132 -18 c-3 -8 -6 -5 -6 6 -1 11 2 17 5 13 3 -3 4 -12
1 -19z m13 -28 c0 -5 -2 -10 -4 -10 -3 0 -8 5 -11 10 -3 6 -1 10 4 10 6 0 11
-4 11 -10z m-13 -37 c3 -7 -3 -9 -16 -6 -12 3 -21 10 -21 15 0 13 32 6 37 -9z
m-10 -29 c-3 -3 -12 -4 -19 -1 -8 3 -5 6 6 6 11 1 17 -2 13 -5z m-37 -34 c10
0 20 -10 24 -23 7 -27 -3 -69 -15 -62 -4 3 -6 12 -2 20 4 11 -3 15 -26 15 -31
0 -42 13 -18 24 10 5 10 7 0 12 -19 8 -16 27 3 20 9 -3 24 -6 34 -6z m63 -10
c-3 -12 -8 -19 -11 -16 -5 6 5 36 12 36 2 0 2 -9 -1 -20z"/>
<path d="M5446 1244 c-11 -28 -6 -39 9 -20 8 11 15 23 15 28 0 14 -18 9 -24
-8z"/>
<path d="M2736 1452 c-3 -2 -22 -6 -42 -8 -20 -2 -60 -13 -89 -25 l-53 -22 1
-51 c0 -28 -4 -77 -8 -108 -6 -44 -5 -58 5 -58 8 0 10 -8 6 -22 -4 -13 -8 -86
-10 -163 -2 -103 -1 -117 4 -55 3 47 7 73 8 58 1 -18 8 -28 18 -28 8 0 12 -4
9 -10 -3 -5 -1 -10 4 -10 6 0 11 -7 11 -16 0 -8 -4 -13 -8 -10 -5 3 -14 -11
-21 -31 -11 -29 -11 -38 0 -49 19 -18 99 -30 99 -15 0 6 -4 11 -10 11 -6 0 -9
23 -8 53 l1 52 7 -50 7 -50 1 51 c2 39 -2 53 -14 58 -8 3 -12 10 -9 16 4 6 11
8 16 5 5 -4 9 -1 9 4 0 6 -4 11 -10 11 -5 0 -10 6 -10 14 0 22 77 14 95 -10 9
-12 14 -14 15 -6 0 7 4 11 10 7 5 -3 7 -11 4 -18 -7 -19 31 -58 49 -51 19 7
30 -11 29 -47 0 -16 4 -29 9 -29 5 0 9 5 9 12 0 6 3 9 6 5 4 -3 22 9 41 26 23
23 32 38 27 50 -3 9 -11 17 -16 17 -6 0 -8 -7 -4 -15 3 -9 0 -15 -10 -15 -10
0 -14 -6 -10 -15 3 -8 1 -15 -4 -15 -6 0 -10 6 -11 13 0 6 -4 3 -9 -8 -8 -19
-9 -19 -9 2 -1 12 -9 27 -18 32 -17 10 -17 12 0 25 10 8 29 13 43 11 13 -1 24
-1 24 0 0 2 -19 21 -41 44 -45 45 -69 52 -69 21 0 -11 -4 -20 -10 -20 -5 0 -6
-8 -3 -17 6 -15 5 -16 -9 -3 -9 8 -14 18 -11 23 2 4 -1 7 -6 7 -6 0 -10 3 -10
8 4 27 -3 43 -18 40 -11 -2 -18 3 -18 12 0 8 10 16 21 18 12 2 30 12 39 22 9
10 23 16 31 13 8 -3 14 1 14 10 0 17 18 32 27 23 9 -8 -18 -37 -44 -47 -25 -9
-41 -55 -25 -71 7 -7 16 1 30 28 11 22 32 50 46 63 14 13 23 27 21 31 -3 5 1
10 9 13 16 6 49 67 36 67 -4 0 -15 -10 -23 -22 -9 -13 -16 -18 -16 -12 -1 6 6
17 14 24 8 7 15 20 15 29 0 13 -4 11 -18 -6 -17 -22 -17 -21 -18 43 -1 49 1
62 9 49 9 -17 11 -17 24 1 14 19 15 19 13 -1 -1 -11 -1 -38 -1 -60 2 -31 4
-35 10 -20 5 11 7 31 5 45 -1 14 -3 33 -3 42 -1 25 -59 78 -84 77 -22 -2 -22
-2 1 -6 12 -2 22 -8 22 -13 0 -4 -9 -6 -21 -3 -12 4 -25 0 -29 -7 -10 -17
-112 -22 -107 -6 2 6 15 11 29 11 14 0 31 5 39 11 8 6 21 14 29 17 8 3 -6 5
-32 5 -26 0 -49 -3 -52 -6z m-26 -22 c-8 -5 -28 -9 -45 -9 -30 2 -30 2 5 9 51
11 57 11 40 0z m-73 -26 c-3 -3 -12 -4 -19 -1 -8 3 -5 6 6 6 11 1 17 -2 13 -5z
m81 -17 c2 -11 -2 -14 -17 -10 -15 4 -21 1 -21 -11 0 -9 -5 -16 -11 -16 -5 0
-8 -4 -5 -8 8 -13 -11 -35 -23 -28 -6 4 -11 12 -11 17 0 6 5 7 12 3 7 -5 8 -3
4 5 -5 7 -15 10 -23 7 -9 -4 -22 -1 -29 5 -10 8 -14 8 -14 0 0 -6 -4 -11 -10
-11 -5 0 -10 7 -10 15 0 8 5 15 11 15 5 0 7 5 4 10 -4 6 6 10 22 9 15 0 22 -3
16 -6 -7 -2 -13 -9 -13 -14 0 -17 32 -9 62 16 33 28 51 28 56 2z m197 13 c3
-5 -1 -10 -9 -10 -9 0 -16 5 -16 10 0 6 4 10 9 10 6 0 13 -4 16 -10z m-73 -52
c19 -19 26 -88 8 -88 -5 0 -10 12 -10 28 0 39 -12 52 -44 49 -35 -2 -47 20
-14 25 34 6 39 5 60 -14z m-52 -28 c10 0 10 -73 0 -85 -7 -9 -8 -15 -1 -19 6
-4 7 -14 4 -24 -5 -14 -3 -15 8 -4 7 6 19 12 26 12 21 0 15 -20 -9 -29 -19 -7
-25 -5 -34 15 l-10 25 -25 -28 c-14 -16 -41 -41 -61 -58 -19 -16 -37 -37 -41
-45 -4 -12 -6 -12 -6 2 -1 9 6 23 14 32 8 8 15 27 15 43 0 18 -3 24 -9 15 -4
-7 -6 12 -3 43 3 33 1 55 -6 55 -5 0 -13 8 -16 17 -4 10 -4 14 0 10 4 -4 14
-1 22 5 32 27 58 34 92 26 19 -4 37 -8 40 -8z m-213 -87 c-3 -10 -5 -4 -5 12
0 17 2 24 5 18 2 -7 2 -21 0 -30z m-20 -20 c-3 -10 -5 -2 -5 17 0 19 2 27 5
18 2 -10 2 -26 0 -35z m20 -65 c-3 -8 -6 -5 -6 6 -1 11 2 17 5 13 3 -3 4 -12
1 -19z m188 -8 c-3 -5 -14 -10 -25 -10 -10 0 -20 -7 -24 -15 -3 -8 -11 -15
-18 -15 -18 1 40 50 58 50 8 0 12 -4 9 -10z m-45 -98 c0 -4 -10 -9 -22 -9 -18
-2 -20 0 -8 7 18 12 30 13 30 2z m-90 -197 c16 -19 1 -19 -24 0 -16 12 -17 15
-4 15 8 0 21 -7 28 -15z"/>
<path d="M3239 1455 c-3 -2 -20 -6 -39 -8 -36 -5 -53 -10 -105 -32 -16 -7 -37
-15 -45 -18 -9 -3 -4 -6 12 -6 37 -1 58 -11 58 -27 0 -19 -16 -18 -24 1 -6 17
-56 21 -56 5 0 -5 9 -10 19 -10 11 0 23 -5 26 -10 4 -7 -2 -9 -19 -4 -25 6
-26 5 -26 -42 0 -37 3 -45 11 -34 8 11 12 12 16 2 2 -6 9 -10 14 -6 5 3 9 1 9
-5 0 -5 -4 -13 -10 -16 -16 -10 -12 -65 5 -65 8 0 15 -4 15 -10 0 -25 -40 -2
-53 30 -3 9 -6 5 -6 -11 -1 -15 -4 -41 -7 -58 -5 -24 -3 -31 10 -31 9 0 16 -6
16 -14 0 -7 3 -28 7 -46 5 -25 3 -32 -8 -28 -8 3 -17 20 -20 39 -3 19 -5 -12
-5 -68 1 -93 14 -119 15 -30 1 20 4 37 9 37 4 0 6 -25 5 -57 -1 -41 -6 -59
-18 -66 -25 -13 -1 -27 48 -27 25 0 36 -4 31 -11 -4 -7 1 -10 12 -7 17 3 19
15 22 101 l3 97 33 -3 c19 -1 32 -4 30 -6 -2 -2 1 -10 7 -17 11 -14 39 -8 39
8 0 6 -7 8 -15 4 -8 -3 -15 0 -15 5 0 7 9 9 21 6 12 -3 22 0 26 9 3 8 9 11 14
8 5 -3 7 -9 4 -14 -3 -5 3 -11 14 -15 30 -9 56 -44 44 -56 -8 -8 -8 -20 -1
-41 6 -16 8 -32 4 -35 -3 -4 -6 2 -6 13 0 16 -2 17 -10 4 -13 -20 -13 -40 0
-40 6 0 30 17 52 39 l42 39 -43 56 c-33 43 -48 55 -62 51 -11 -4 -19 -2 -19 5
0 6 5 8 10 5 19 -12 10 4 -23 39 -23 24 -37 32 -45 26 -7 -6 -5 -2 3 8 13 14
17 14 24 3 12 -19 45 -6 61 24 7 14 17 25 21 25 13 0 49 70 49 96 0 13 5 24
10 24 26 0 -12 128 -43 147 -7 4 -38 6 -69 5 -35 -2 -58 2 -58 8 0 10 -13 14
-21 5z m-34 -25 c-5 -7 12 -9 52 -5 50 5 56 4 41 -8 -10 -8 -18 -19 -18 -26 0
-14 -37 -15 -42 0 -5 16 -36 0 -44 -23 -6 -20 -6 -19 -21 1 -17 25 -9 58 15
64 9 3 18 5 20 6 2 0 0 -4 -3 -9z m168 -7 c-7 -2 -21 -2 -30 0 -10 3 -4 5 12
5 17 0 24 -2 18 -5z m23 -28 c18 -15 18 -15 0 -8 -16 5 -18 3 -14 -15 3 -12 1
-26 -6 -31 -8 -7 -11 2 -11 30 -1 43 2 46 31 24z m-239 -20 c8 -9 13 -19 10
-22 -6 -5 -37 21 -37 31 0 10 11 6 27 -9z m143 -23 c0 -10 -5 -23 -11 -29 -9
-9 -6 -19 10 -42 22 -31 22 -31 2 -31 -13 0 -21 -6 -21 -18 0 -9 -9 -23 -20
-30 -12 -7 -18 -18 -14 -24 4 -6 3 -8 -4 -4 -6 3 -19 -5 -30 -19 -11 -14 -28
-25 -39 -25 -16 0 -18 6 -14 46 2 32 0 44 -8 40 -7 -5 -11 2 -11 18 0 13 6 27
13 29 7 3 4 6 -7 6 -15 1 -16 4 -7 15 9 11 8 18 -5 30 -9 10 -14 19 -11 22 2
3 11 -2 19 -9 12 -13 19 -13 47 -1 23 10 38 11 51 4 29 -16 38 -12 35 15 -1
16 3 25 11 25 8 0 14 -8 14 -18z m119 -6 c9 -10 8 -16 -4 -26 -13 -11 -15 -8
-15 14 0 30 3 32 19 12z m-71 -46 c2 -19 7 -39 12 -44 5 -5 7 -23 5 -40 -4
-27 -4 -27 3 -6 6 18 10 21 16 12 8 -13 -1 -26 -56 -83 -14 -14 -17 -15 -22
-3 -3 8 -12 14 -20 14 -16 0 -28 37 -14 46 13 8 58 -4 58 -16 0 -6 4 -10 9
-10 6 0 6 12 0 32 -5 18 -9 48 -9 66 0 18 -5 42 -11 54 -9 17 -8 19 8 16 12
-2 19 -14 21 -38z m42 -40 c-18 -11 -22 -7 -14 14 5 13 10 14 18 6 8 -8 7 -13
-4 -20z m20 -20 c0 -5 -4 -10 -10 -10 -5 0 -10 5 -10 10 0 6 5 10 10 10 6 0
10 -4 10 -10z m-270 -80 c0 -11 -2 -20 -4 -20 -2 0 -6 9 -9 20 -3 11 -1 20 4
20 5 0 9 -9 9 -20z m110 -15 c0 -8 -7 -15 -16 -15 -14 0 -14 3 -4 15 7 8 14
15 16 15 2 0 4 -7 4 -15z m-47 -52 c-7 -17 -59 -17 -66 0 -4 10 5 14 33 13 27
0 36 -4 33 -13z m107 -33 c0 -5 -4 -10 -10 -10 -5 0 -10 5 -10 10 0 6 5 10 10
10 6 0 10 -4 10 -10z m-60 -20 c0 -5 -4 -10 -10 -10 -5 0 -10 5 -10 10 0 6 5
10 10 10 6 0 10 -4 10 -10z m-57 -7 c-7 -2 -19 -2 -25 0 -7 3 -2 5 12 5 14 0
19 -2 13 -5z m175 -28 c-3 -3 -9 2 -12 12 -6 14 -5 15 5 6 7 -7 10 -15 7 -18z
m-244 -11 c3 -8 2 -12 -4 -9 -6 3 -10 10 -10 16 0 14 7 11 14 -7z m276 -19
c15 -18 6 -45 -15 -45 -21 0 -19 20 3 20 16 1 16 1 0 14 -10 7 -18 16 -18 20
0 11 17 6 30 -9z m-251 -47 c-1 -40 -2 -41 -9 -13 l-7 30 -5 -30 c-5 -28 -5
-27 -7 8 0 23 3 36 9 32 6 -3 10 -1 10 4 0 6 2 11 5 11 3 0 4 -19 4 -42z m251
-24 c0 -8 -5 -12 -10 -9 -6 4 -8 11 -5 16 9 14 15 11 15 -7z m-287 -51 c-7 -2
-19 -2 -25 0 -7 3 -2 5 12 5 14 0 19 -2 13 -5z"/>
<path d="M3296 1166 c7 -19 38 -22 32 -3 -3 6 -12 13 -21 15 -12 2 -15 -1 -11
-12z"/>
<path d="M3293 1453 c9 -2 23 -2 30 0 6 3 -1 5 -18 5 -16 0 -22 -2 -12 -5z"/>
<path d="M4480 1451 c0 -7 -4 -10 -9 -7 -13 8 -71 -26 -71 -42 0 -7 -4 -11 -9
-8 -5 3 -15 -1 -22 -10 -11 -14 -10 -18 6 -30 10 -8 21 -11 24 -8 3 3 -3 12
-14 20 -19 15 -19 15 7 9 21 -6 32 -1 51 19 25 27 70 35 83 15 9 -16 -15 -29
-53 -29 -18 0 -33 -4 -33 -10 0 -5 -10 -18 -21 -29 -18 -16 -25 -18 -43 -8
-11 7 -25 17 -29 22 -5 6 -7 4 -4 -6 3 -8 -5 -24 -17 -36 -38 -37 -61 -127
-61 -243 0 -58 3 -114 7 -125 18 -56 40 -95 53 -95 8 0 15 -7 15 -15 0 -25 50
-37 134 -33 78 5 78 5 123 52 26 27 46 57 47 71 0 14 4 25 7 25 4 0 10 7 13
16 3 8 2 12 -4 9 -16 -10 -11 39 5 61 15 18 16 17 10 -16 -5 -32 -4 -33 6 -10
15 36 23 181 11 210 l-10 25 -7 -32 c-8 -33 -25 -46 -25 -18 0 8 -4 15 -10 15
-5 0 -10 -7 -10 -15 0 -8 -4 -15 -10 -15 -14 0 -12 9 9 55 l19 39 5 -29 4 -30
2 28 c0 18 5 26 12 21 13 -8 6 17 -22 84 -14 33 -28 47 -61 62 -24 11 -32 17
-18 14 22 -6 23 -5 10 9 -19 21 -100 34 -100 18z m45 -11 c3 -5 -1 -10 -9 -10
-9 0 -16 5 -16 10 0 6 4 10 9 10 6 0 13 -4 16 -10z m63 -56 c6 3 17 3 25 0 17
-6 30 -44 15 -44 -5 0 -12 9 -15 20 -3 11 -10 20 -15 20 -6 0 -7 -11 -3 -27 3
-15 7 -32 8 -36 1 -5 -6 -11 -16 -12 -9 -2 -15 1 -12 5 8 12 -29 22 -57 15
-13 -3 -35 -1 -48 5 -24 10 -24 10 5 5 17 -3 44 -1 60 3 25 8 30 13 28 38 -2
20 0 25 6 15 5 -7 13 -11 19 -7z m-115 -81 c-7 -2 -21 -2 -30 0 -10 3 -4 5 12
5 17 0 24 -2 18 -5z m87 -9 c0 -8 -4 -12 -10 -9 -5 3 -10 10 -10 16 0 5 5 9
10 9 6 0 10 -7 10 -16z m-43 0 c-3 -3 -12 -4 -19 -1 -8 3 -5 6 6 6 11 1 17 -2
13 -5z m83 -14 c0 -5 -5 -10 -11 -10 -5 0 -7 5 -4 10 3 6 8 10 11 10 2 0 4 -4
4 -10z m-202 -25 c0 -18 -6 -25 -19 -25 -11 0 -19 7 -19 15 0 8 5 15 11 15 5
0 7 5 4 10 -3 6 0 10 8 10 9 0 15 -10 15 -25z m141 5 c13 -10 29 -36 37 -57
l13 -38 1 37 c0 20 -5 38 -12 41 -7 2 -10 8 -5 12 19 21 36 -56 26 -123 -3
-23 -2 -45 3 -48 11 -7 10 -51 -1 -59 -5 -3 -12 5 -14 17 -2 13 -4 8 -3 -9 1
-18 -2 -33 -7 -33 -5 0 -25 -14 -45 -31 -31 -27 -41 -31 -78 -26 -23 2 -46 1
-51 -4 -5 -5 -24 -10 -43 -11 -30 -3 -35 0 -32 17 2 19 2 19 -11 3 -19 -24
-24 -23 -21 5 1 12 3 26 3 30 1 5 6 5 11 2 6 -3 10 1 10 9 0 10 -7 13 -21 11
-16 -3 -19 0 -14 15 4 12 2 20 -4 20 -15 0 -14 37 2 43 9 4 8 8 -3 16 -15 11
-9 24 14 27 11 2 13 -10 10 -55 -4 -45 -3 -52 6 -38 7 10 9 30 6 45 -5 20 -4
23 4 12 6 -10 10 -11 10 -2 0 6 5 12 10 12 14 0 13 -27 -1 -32 -12 -4 -15 -85
-4 -96 3 -4 10 0 16 8 7 12 10 11 15 -7 4 -15 14 -23 27 -23 20 0 20 1 -3 25
-21 22 -24 35 -23 93 2 93 6 115 29 138 10 12 29 33 41 47 28 33 70 36 102 7z
m-199 -5 c0 -8 -7 -15 -15 -15 -8 0 -15 7 -15 15 0 8 7 15 15 15 8 0 15 -7 15
-15z m11 -57 c12 -22 11 -23 -8 -5 -20 17 -21 17 -26 -3 -3 -13 -10 -18 -20
-14 -28 10 -7 36 35 43 4 0 13 -9 19 -21z m0 -69 c-5 -13 -10 -19 -11 -14 0 6
-5 3 -11 -5 -8 -12 -9 -10 -5 10 3 14 6 34 6 45 0 17 2 18 15 4 12 -12 13 -21
6 -40z m339 11 c0 -22 -4 -40 -10 -40 -11 0 -13 39 -4 64 10 26 14 19 14 -24z
m-33 -12 c-3 -8 -6 -5 -6 6 -1 11 2 17 5 13 3 -3 4 -12 1 -19z m-27 -30 c0
-16 -3 -19 -11 -11 -6 6 -8 16 -5 22 11 17 16 13 16 -11z m20 -43 l-8 -40 -1
36 c0 20 2 39 6 42 11 11 11 4 3 -38z m-303 -37 c-3 -8 -6 -5 -6 6 -1 11 2 17
5 13 3 -3 4 -12 1 -19z m266 -74 c-47 -40 -56 -31 -21 19 30 44 42 50 46 26 2
-13 -7 -29 -25 -45z m-58 7 c-3 -6 -11 -11 -16 -11 -5 0 -4 6 3 14 14 16 24
13 13 -3z m13 -62 l4 -34 -22 28 c-12 15 -18 32 -15 37 12 20 30 4 33 -31z
m42 12 c0 -6 -4 -13 -10 -16 -5 -3 -10 1 -10 9 0 9 5 16 10 16 6 0 10 -4 10
-9z m-191 -62 c-14 -8 -8 -13 36 -22 14 -3 11 -5 -9 -6 -17 -1 -34 6 -42 17
-19 24 -17 31 7 25 15 -4 17 -8 8 -14z m111 10 c-11 -8 -7 -9 19 -5 41 7 36
-1 -8 -14 -22 -6 -29 -5 -25 2 5 7 -2 9 -19 4 -14 -3 -28 -2 -32 3 -5 9 18 15
65 19 13 2 13 1 0 -9z m-145 -19 c3 -5 -1 -10 -9 -10 -9 0 -16 5 -16 10 0 6 4
10 9 10 6 0 13 -4 16 -10z"/>
<path d="M4976 1445 c-13 -10 -23 -11 -31 -5 -11 9 -55 3 -65 -10 -3 -3 -24
-11 -47 -18 l-41 -12 3 -138 c1 -75 6 -153 9 -172 4 -19 8 -50 10 -68 6 -53
-17 -20 -25 36 -4 32 -7 8 -8 -80 l-1 -126 33 -11 c19 -7 41 -9 50 -5 10 3 17
1 17 -5 0 -6 7 -11 15 -11 12 0 15 13 15 60 0 50 -3 60 -17 60 -15 0 -16 2 -3
10 8 5 15 25 16 46 1 20 5 39 10 43 5 3 11 17 12 31 5 30 2 27 32 33 14 2 19
2 13 0 -7 -3 -13 -13 -13 -24 0 -10 -6 -19 -13 -19 -7 0 -13 -9 -14 -20 -1
-14 6 -22 24 -26 13 -4 37 -18 51 -31 15 -13 28 -20 30 -14 7 20 42 12 42 -9
0 -14 -7 -20 -21 -20 -21 0 -21 -1 5 -34 14 -19 26 -39 26 -45 0 -6 5 -11 10
-11 7 0 7 6 0 19 -13 26 -13 34 3 24 24 -15 44 -12 66 8 12 12 19 24 16 27 -4
4 -12 -1 -19 -11 -17 -22 -30 -22 -22 -1 6 14 4 15 -10 4 -13 -12 -17 -11 -25
1 -8 12 -10 12 -20 -1 -9 -13 -10 -13 -6 0 2 8 13 15 25 14 12 0 19 3 16 7 -8
14 9 40 23 35 11 -5 11 -2 2 15 -6 12 -19 24 -30 26 -10 3 -17 9 -14 13 3 5 0
12 -6 16 -6 3 -15 0 -20 -7 -4 -7 -12 -10 -16 -5 -4 5 -2 11 5 13 17 7 15 23
-3 23 -13 0 -14 4 -4 23 7 12 19 27 27 33 9 7 12 18 8 32 -8 25 -19 28 -35 8
-7 -8 -20 -12 -30 -9 -11 3 -21 -2 -24 -11 -4 -9 -14 -16 -22 -16 -12 0 -8 9
14 31 28 28 39 49 26 49 -11 0 -76 -71 -71 -78 2 -4 -11 -7 -30 -8 -23 0 -34
4 -34 13 0 8 5 11 10 8 7 -4 10 15 8 57 -2 46 -7 65 -17 65 -14 0 -11 -51 5
-92 7 -18 7 -19 -8 -4 -18 17 -26 81 -15 115 6 17 54 43 95 50 20 4 67 -19 68
-33 1 -7 2 -28 3 -47 1 -28 6 -35 24 -38 12 -2 22 -8 21 -13 -1 -6 7 -18 17
-27 18 -17 20 -16 45 21 48 73 54 173 12 218 -16 17 -28 20 -57 16 -24 -3 -32
-2 -23 5 11 7 10 10 -3 16 -28 11 -79 6 -99 -9z m64 -14 c0 -6 17 -12 38 -14
20 -2 2 -4 -41 -5 -59 -2 -79 -6 -83 -17 -8 -19 -34 -20 -34 0 0 8 14 17 35
21 19 3 35 10 35 15 0 5 11 9 25 9 14 0 25 -4 25 -9z m98 -26 c-3 -3 -9 2 -12
12 -6 14 -5 15 5 6 7 -7 10 -15 7 -18z m-268 -5 c-20 -13 -43 -13 -35 0 3 6
16 10 28 10 18 0 19 -2 7 -10z m10 -20 c0 -5 -4 -10 -10 -10 -5 0 -10 5 -10
10 0 6 5 10 10 10 6 0 10 -4 10 -10z m290 -18 c0 -15 -2 -15 -10 -2 -13 20
-13 33 0 25 6 -3 10 -14 10 -23z m-1 -60 c-1 -26 -1 -26 -11 5 -6 18 -19 35
-29 38 -11 4 -16 12 -12 21 9 23 53 -31 52 -64z m-320 62 c41 -9 39 -19 -4
-20 -18 0 -32 3 -29 7 2 4 -2 10 -8 12 -19 8 4 8 41 1z m61 -34 c-8 -5 -19
-10 -25 -10 -5 0 -3 5 5 10 8 5 20 10 25 10 6 0 3 -5 -5 -10z m249 -69 c14
-11 13 -12 -9 -6 -22 7 -24 6 -11 -9 11 -13 11 -20 3 -28 -9 -9 -12 -7 -13 8
0 10 -2 35 -4 53 -2 29 -1 32 7 15 6 -10 18 -25 27 -33z m-278 -131 c6 -16 15
-30 20 -30 4 0 6 -7 2 -16 -5 -13 -8 -12 -24 5 -11 11 -19 32 -19 46 0 34 9
32 21 -5z m169 -11 c0 -5 -4 -8 -9 -5 -5 4 -11 0 -14 -6 -2 -7 -8 -10 -12 -6
-4 4 -4 11 0 17 8 14 35 14 35 0z m-10 -80 c0 -5 -4 -9 -10 -9 -5 0 -10 7 -10
16 0 8 5 12 10 9 6 -3 10 -10 10 -16z m-5 -30 c11 -16 1 -19 -13 -3 -7 8 -8
14 -3 14 5 0 13 -5 16 -11z m-238 -131 c-2 -13 -4 -3 -4 22 0 25 2 35 4 23 2
-13 2 -33 0 -45z m83 13 c0 -29 -15 -42 -48 -40 -14 0 -13 2 3 9 17 7 17 9 3
9 -10 1 -18 5 -18 11 0 5 6 7 14 4 9 -3 17 3 21 15 9 31 25 26 25 -8z"/>
<path d="M5695 1400 c28 -12 47 -12 40 0 -3 6 -18 10 -33 9 -24 0 -25 -1 -7
-9z"/>
<path d="M2323 1372 c-46 -2 -83 -7 -83 -12 0 -13 177 -13 184 -1 9 14 -12 16
-101 13z"/>
<path d="M2900 1320 c0 -11 2 -20 4 -20 2 0 6 9 9 20 3 11 1 20 -4 20 -5 0 -9
-9 -9 -20z"/>
<path d="M4030 1310 c0 -6 11 -8 28 -4 39 10 40 14 4 14 -18 0 -32 -5 -32 -10z"/>
<path d="M3575 1290 c-2 -3 0 -12 6 -20 5 -9 9 -10 9 -3 0 13 67 15 76 2 3 -5
-13 -9 -36 -9 l-42 0 2 -77 c4 -148 0 -326 -7 -320 -3 4 -5 95 -4 202 1 126
-2 195 -8 195 -7 0 -12 -61 -14 -157 l-3 -158 0 173 c1 94 -2 172 -6 172 -11
0 -14 -424 -3 -432 6 -4 39 -7 75 -7 43 1 56 3 40 8 -20 5 -26 14 -28 44 -3
34 -1 37 22 37 l25 0 3 171 c2 94 1 175 -2 179 -6 9 -100 8 -105 0z m77 -140
l-17 -29 -12 22 c-18 32 -16 37 17 37 l29 0 -17 -30z"/>
<path d="M4888 1283 c7 -3 16 -2 19 1 4 3 -2 6 -13 5 -11 0 -14 -3 -6 -6z"/>
<path d="M3920 1153 c0 -29 5 -53 10 -53 13 0 13 70 0 90 -7 11 -10 0 -10 -37z"/>
<path d="M1698 939 c-1 -35 -1 -77 0 -93 1 -16 -4 -38 -9 -48 -9 -17 -8 -18 8
-10 10 6 51 14 92 18 48 4 75 12 78 21 3 8 3 16 0 19 -7 7 -58 -7 -52 -15 2
-4 -10 -5 -28 -2 -31 4 -31 5 -7 12 24 7 24 7 3 8 -13 1 -32 -8 -43 -19 -11
-11 -22 -20 -24 -20 -2 0 -4 41 -5 92 -2 107 -10 131 -13 37z"/>
<path d="M3270 985 c-10 -11 -9 -18 3 -30 9 -8 20 -15 26 -15 6 0 9 -6 7 -12
-1 -7 -1 -10 1 -5 11 19 23 4 17 -20 -7 -25 -6 -27 9 -14 19 15 23 41 7 41 -5
0 -10 8 -10 18 0 17 -28 52 -42 52 -3 0 -11 -7 -18 -15z"/>
<path d="M2885 959 c-4 -6 -5 -13 -2 -16 7 -7 27 6 27 18 0 12 -17 12 -25 -2z"/>
<path d="M5143 943 c8 -9 20 -12 26 -9 19 12 12 21 -15 23 -24 1 -25 -1 -11
-14z"/>
<path d="M2820 906 c0 -9 5 -16 10 -16 6 0 10 4 10 9 0 6 -4 13 -10 16 -5 3
-10 -1 -10 -9z"/>
<path d="M3895 820 c-4 -17 -5 -34 -2 -36 3 -3 8 9 12 26 4 17 5 34 2 36 -3 3
-8 -9 -12 -26z"/>
<path d="M3920 819 c0 -5 5 -7 10 -4 6 3 10 8 10 11 0 2 -4 4 -10 4 -5 0 -10
-5 -10 -11z"/>
</g>
</svg>
