<svg xmlns="http://www.w3.org/2000/svg" xmlns:xlink="http://www.w3.org/1999/xlink" width="755" zoomAndPan="magnify" viewBox="0 0 567 567.000005" height="755" preserveAspectRatio="xMidYMid meet" version="1.0"><defs><clipPath id="c4601029b3"><path d="M 0.5 0 L 566.5 0 L 566.5 566 L 0.5 566 Z M 0.5 0 " clip-rule="nonzero"/></clipPath><clipPath id="881568002a"><path d="M 123.980469 157.359375 L 442.917969 157.359375 L 442.917969 408.914062 L 123.980469 408.914062 Z M 123.980469 157.359375 " clip-rule="nonzero"/></clipPath></defs><g clip-path="url(#c4601029b3)"><path fill="#0e5a03" d="M 0.5 0 L 566.5 0 L 566.5 566 L 0.5 566 Z M 0.5 0 " fill-opacity="1" fill-rule="nonzero"/><path fill="#0e5a03" d="M 0.5 0 L 566.5 0 L 566.5 566 L 0.5 566 Z M 0.5 0 " fill-opacity="1" fill-rule="nonzero"/></g><g clip-path="url(#881568002a)"><path fill="#fff" d="M 426.945312 199.878906 L 360.105469 199.878906 L 357.84375 183.882812 L 356.113281 173.101562 C 355.410156 168.757812 353.117188 165.15625 349.511719 162.148438 C 345.824219 159.066406 341.875 157.453125 337.53125 157.453125 L 228.847656 157.453125 C 224.507812 157.453125 220.515625 159.015625 216.867188 162.148438 C 213.222656 165.277344 211.285156 168.949219 210.617188 173.101562 L 208.882812 183.882812 L 206.453125 199.878906 L 139.953125 199.878906 C 131.097656 199.878906 123.980469 207.007812 123.980469 215.527344 L 123.980469 392.875 C 123.980469 401.742188 131.097656 408.871094 139.953125 408.871094 L 426.941406 408.871094 C 435.796875 408.871094 442.914062 401.742188 442.914062 392.875 L 442.914062 215.527344 C 442.914062 207.007812 435.796875 199.878906 426.941406 199.878906 Z M 423.648438 389.574219 L 143.082031 389.574219 L 143.082031 219.007812 L 206.453125 219.007812 C 216.003906 219.007812 224.246094 211.890625 225.550781 202.664062 L 227.808594 186.667969 L 229.542969 176.757812 L 337.1875 176.757812 L 338.75 186.667969 L 341.179688 202.664062 C 342.578125 211.875 350.902344 219.007812 360.105469 219.007812 L 423.648438 219.007812 Z M 423.648438 389.574219 " fill-opacity="1" fill-rule="nonzero"/></g><path fill="#fff" d="M 392.742188 264.386719 C 401.078125 264.386719 408.023438 257.261719 408.023438 248.914062 C 408.023438 240.394531 401.25 233.265625 392.742188 233.265625 C 384.234375 233.265625 377.464844 240.394531 377.464844 248.914062 C 377.464844 257.261719 384.410156 264.386719 392.742188 264.386719 Z M 392.742188 264.386719 " fill-opacity="1" fill-rule="nonzero"/><path fill="#fff" d="M 283.191406 224.046875 C 263.574219 224.046875 246.558594 231.171875 232.496094 245.257812 C 218.429688 259.339844 211.3125 276.382812 211.3125 296.03125 C 211.3125 315.675781 218.429688 332.714844 232.496094 346.800781 C 246.558594 360.882812 263.574219 367.546875 283.191406 367.839844 C 322.085938 368.414062 355.523438 334.632812 355.066406 296.03125 C 354.832031 276.207031 347.945312 259.339844 333.886719 245.257812 C 319.824219 231.171875 302.980469 224.046875 283.1875 224.046875 Z M 320.34375 333.414062 C 310.101562 343.667969 297.777344 348.710938 283.191406 348.710938 C 268.78125 348.710938 256.457031 343.667969 246.210938 333.414062 C 235.964844 323.152344 230.933594 310.632812 230.933594 296.03125 C 230.933594 281.597656 235.964844 269.078125 246.210938 258.820312 C 256.457031 248.5625 268.78125 243.347656 283.191406 243.347656 C 297.777344 243.347656 310.101562 248.5625 320.34375 258.820312 C 330.589844 269.078125 335.796875 281.597656 335.796875 296.03125 C 335.796875 310.632812 330.589844 323.152344 320.34375 333.414062 Z M 320.34375 333.414062 " fill-opacity="1" fill-rule="nonzero"/></svg>