<svg xmlns="http://www.w3.org/2000/svg" xmlns:xlink="http://www.w3.org/1999/xlink" width="755" zoomAndPan="magnify" viewBox="0 0 567 567.000005" height="755" preserveAspectRatio="xMidYMid meet" version="1.0"><defs><clipPath id="e95a3ddfc4"><path d="M 0.5 0 L 566.5 0 L 566.5 566 L 0.5 566 Z M 0.5 0 " clip-rule="nonzero"/></clipPath><clipPath id="fbca968b62"><path d="M 171.207031 133.472656 L 395.8125 133.472656 L 395.8125 432.195312 L 171.207031 432.195312 Z M 171.207031 133.472656 " clip-rule="nonzero"/></clipPath></defs><g clip-path="url(#e95a3ddfc4)"><path fill="#0e5a03" d="M 0.5 0 L 566.5 0 L 566.5 1712.980469 L 0.5 1712.980469 Z M 0.5 0 " fill-opacity="1" fill-rule="nonzero"/><path fill="#0e5a03" d="M 0.5 0 L 566.5 0 L 566.5 566 L 0.5 566 Z M 0.5 0 " fill-opacity="1" fill-rule="nonzero"/><path fill="#0e5a03" d="M 0.5 0 L 566.5 0 L 566.5 566 L 0.5 566 Z M 0.5 0 " fill-opacity="1" fill-rule="nonzero"/></g><g clip-path="url(#fbca968b62)"><path fill="#fff" d="M 215.351562 332.285156 C 213.226562 332.285156 211.5 330.5625 211.5 328.4375 C 211.5 326.3125 213.226562 324.59375 215.351562 324.59375 L 283.507812 324.59375 C 285.632812 324.59375 287.359375 326.3125 287.359375 328.4375 C 287.359375 330.5625 285.632812 332.285156 283.507812 332.285156 Z M 215.351562 304.566406 C 213.226562 304.566406 211.5 302.84375 211.5 300.71875 C 211.5 298.597656 213.226562 296.875 215.351562 296.875 L 351.664062 296.875 C 353.789062 296.875 355.515625 298.597656 355.515625 300.71875 C 355.515625 302.84375 353.789062 304.566406 351.664062 304.566406 Z M 215.351562 276.851562 C 213.226562 276.851562 211.5 275.128906 211.5 273.003906 C 211.5 270.878906 213.226562 269.15625 215.351562 269.15625 L 351.664062 269.15625 C 353.789062 269.15625 355.515625 270.878906 355.515625 273.003906 C 355.515625 275.128906 353.789062 276.851562 351.664062 276.851562 Z M 215.351562 249.132812 C 213.226562 249.132812 211.5 247.410156 211.5 245.285156 C 211.5 243.164062 213.226562 241.441406 215.351562 241.441406 L 351.664062 241.441406 C 353.789062 241.441406 355.515625 243.164062 355.515625 245.285156 C 355.515625 247.410156 353.789062 249.132812 351.664062 249.132812 Z M 215.351562 221.417969 C 213.226562 221.417969 211.5 219.695312 211.5 217.570312 C 211.5 215.445312 213.226562 213.726562 215.351562 213.726562 L 351.664062 213.726562 C 353.789062 213.726562 355.515625 215.445312 355.515625 217.570312 C 355.515625 219.695312 353.789062 221.417969 351.664062 221.417969 Z M 215.351562 193.699219 C 213.226562 193.699219 211.5 191.976562 211.5 189.851562 C 211.5 187.730469 213.226562 186.007812 215.351562 186.007812 L 351.664062 186.007812 C 353.789062 186.007812 355.515625 187.730469 355.515625 189.851562 C 355.515625 191.976562 353.789062 193.699219 351.664062 193.699219 Z M 193.546875 133.484375 C 189.953125 133.707031 186.753906 134.3125 183.890625 135.695312 C 180.964844 137.109375 178.386719 139.148438 176.332031 141.628906 C 175.394531 142.773438 174.578125 143.984375 173.917969 145.1875 C 173.574219 145.820312 173.257812 146.46875 172.972656 147.136719 C 172.246094 148.996094 171.742188 150.636719 171.46875 152.410156 C 171.296875 153.511719 171.207031 154.644531 171.207031 155.792969 L 171.207031 409.878906 C 171.207031 411.027344 171.296875 412.15625 171.46875 413.261719 C 172.078125 417.234375 173.96875 421.144531 176.332031 424.042969 C 178.15625 426.25 180.398438 428.101562 182.929688 429.480469 C 186.203125 431.148438 190.421875 432.160156 193.546875 432.1875 L 327.09375 432.1875 L 329.59375 429.691406 C 331.21875 428.148438 332.253906 427.035156 333.871094 425.421875 L 395.808594 363.5625 L 395.808594 155.792969 C 395.765625 154.089844 395.558594 152.222656 395.230469 150.773438 C 394.351562 147.007812 392.511719 143.597656 389.980469 140.816406 C 389.257812 140.023438 388.480469 139.285156 387.648438 138.597656 C 383.78125 135.410156 378.835938 133.484375 373.46875 133.484375 Z M 193.546875 141.175781 L 373.46875 141.175781 C 381.535156 141.175781 388.101562 147.738281 388.101562 155.792969 L 388.101562 357.355469 C 388.101562 359.015625 387.753906 359.738281 387.25 360.332031 C 386.746094 360.921875 385.859375 361.5 384.335938 361.945312 C 381.292969 362.84375 376.082031 362.898438 370.351562 362.667969 C 364.625 362.4375 358.347656 362 352.472656 362.519531 C 346.601562 363.039062 340.796875 364.507812 336.910156 369 C 328.375 378.863281 329.980469 393.945312 329.835938 405.90625 C 329.765625 411.886719 329.289062 417.132812 327.964844 420.199219 C 327.214844 421.875 325.671875 423.453125 324.289062 424.113281 C 323.410156 424.375 322.308594 424.496094 320.878906 424.496094 L 193.542969 424.496094 C 191.425781 424.332031 189.609375 424.058594 187.855469 423.34375 C 183.480469 421.492188 180.183594 417.574219 179.207031 412.820312 C 179.007812 411.824219 178.914062 410.824219 178.910156 409.878906 L 178.910156 155.792969 C 178.90625 154.800781 179.019531 153.769531 179.207031 152.851562 C 180.234375 147.859375 183.816406 143.789062 188.519531 142.066406 C 190.132812 141.480469 192.003906 141.183594 193.542969 141.175781 Z M 359.140625 369.980469 C 362.636719 370.003906 366.371094 370.207031 370.039062 370.355469 C 372.746094 370.464844 375.410156 370.5625 377.976562 370.492188 L 337.40625 411.011719 C 337.484375 409.367188 337.519531 407.695312 337.539062 405.996094 C 337.691406 393.5625 337.371094 380.230469 342.738281 374.03125 C 344.59375 371.886719 348.175781 370.621094 353.15625 370.179688 C 355.023438 370.015625 357.039062 369.964844 359.140625 369.980469 " fill-opacity="1" fill-rule="nonzero"/></g></svg>