<svg xmlns="http://www.w3.org/2000/svg" xmlns:xlink="http://www.w3.org/1999/xlink" width="755" zoomAndPan="magnify" viewBox="0 0 567 567.000005" height="755" preserveAspectRatio="xMidYMid meet" version="1.0"><defs><clipPath id="0f9160ac8c"><path d="M 0.5 0 L 566.5 0 L 566.5 566 L 0.5 566 Z M 0.5 0 " clip-rule="nonzero"/></clipPath><clipPath id="fe50a64de5"><path d="M 167 198 L 434.058594 198 L 434.058594 397.703125 L 167 397.703125 Z M 167 198 " clip-rule="nonzero"/></clipPath><clipPath id="8103d19711"><path d="M 133.089844 167.859375 L 400 167.859375 L 400 368 L 133.089844 368 Z M 133.089844 167.859375 " clip-rule="nonzero"/></clipPath></defs><g clip-path="url(#0f9160ac8c)"><path fill="#0e5a03" d="M 0.5 0 L 566.5 0 L 566.5 566 L 0.5 566 Z M 0.5 0 " fill-opacity="1" fill-rule="nonzero"/><path fill="#0e5a03" d="M 0.5 0 L 566.5 0 L 566.5 566 L 0.5 566 Z M 0.5 0 " fill-opacity="1" fill-rule="nonzero"/></g><path fill="#fff" d="M 196.769531 373.957031 L 405.277344 373.957031 C 405.277344 373.957031 347.425781 256.5 336.003906 254.246094 C 324.578125 251.988281 274.640625 332.558594 274.640625 332.558594 C 274.640625 332.558594 247.304688 281.171875 236.21875 282.46875 C 225.132812 283.765625 196.773438 373.957031 196.773438 373.957031 Z M 196.769531 373.957031 " fill-opacity="1" fill-rule="nonzero"/><path fill="#fff" d="M 281.8125 241.582031 C 281.8125 242.21875 281.78125 242.851562 281.71875 243.484375 C 281.65625 244.117188 281.5625 244.746094 281.4375 245.371094 C 281.3125 245.992188 281.160156 246.609375 280.972656 247.21875 C 280.789062 247.828125 280.574219 248.425781 280.332031 249.011719 C 280.085938 249.601562 279.816406 250.175781 279.515625 250.734375 C 279.214844 251.296875 278.886719 251.84375 278.53125 252.371094 C 278.175781 252.898438 277.796875 253.410156 277.394531 253.902344 C 276.988281 254.394531 276.5625 254.863281 276.109375 255.3125 C 275.660156 255.765625 275.1875 256.191406 274.695312 256.59375 C 274.203125 256.996094 273.691406 257.375 273.160156 257.730469 C 272.628906 258.082031 272.085938 258.410156 271.523438 258.710938 C 270.960938 259.007812 270.382812 259.28125 269.796875 259.523438 C 269.207031 259.769531 268.605469 259.980469 267.996094 260.167969 C 267.386719 260.351562 266.769531 260.503906 266.144531 260.628906 C 265.519531 260.753906 264.886719 260.847656 264.253906 260.910156 C 263.617188 260.972656 262.984375 261.003906 262.34375 261.003906 C 261.707031 261.003906 261.070312 260.972656 260.4375 260.910156 C 259.804688 260.847656 259.171875 260.753906 258.546875 260.628906 C 257.921875 260.503906 257.304688 260.351562 256.695312 260.167969 C 256.085938 259.980469 255.484375 259.769531 254.894531 259.523438 C 254.308594 259.28125 253.730469 259.007812 253.167969 258.710938 C 252.605469 258.410156 252.058594 258.082031 251.53125 257.730469 C 251 257.375 250.488281 256.996094 249.996094 256.59375 C 249.503906 256.191406 249.03125 255.765625 248.582031 255.3125 C 248.128906 254.863281 247.703125 254.394531 247.296875 253.902344 C 246.894531 253.410156 246.511719 252.898438 246.160156 252.371094 C 245.804688 251.84375 245.476562 251.296875 245.175781 250.734375 C 244.875 250.175781 244.605469 249.601562 244.359375 249.011719 C 244.117188 248.425781 243.902344 247.828125 243.714844 247.21875 C 243.53125 246.609375 243.375 245.992188 243.253906 245.371094 C 243.128906 244.746094 243.035156 244.117188 242.972656 243.484375 C 242.910156 242.851562 242.878906 242.21875 242.878906 241.582031 C 242.878906 240.945312 242.910156 240.308594 242.972656 239.675781 C 243.035156 239.042969 243.128906 238.414062 243.253906 237.792969 C 243.375 237.167969 243.53125 236.550781 243.714844 235.941406 C 243.902344 235.335938 244.117188 234.734375 244.359375 234.148438 C 244.605469 233.558594 244.875 232.984375 245.175781 232.425781 C 245.476562 231.863281 245.804688 231.320312 246.160156 230.789062 C 246.511719 230.261719 246.894531 229.75 247.296875 229.257812 C 247.703125 228.769531 248.128906 228.296875 248.582031 227.847656 C 249.03125 227.398438 249.503906 226.972656 249.996094 226.566406 C 250.488281 226.164062 251 225.785156 251.53125 225.433594 C 252.058594 225.078125 252.605469 224.75 253.167969 224.453125 C 253.730469 224.152344 254.308594 223.878906 254.894531 223.636719 C 255.484375 223.394531 256.085938 223.179688 256.695312 222.996094 C 257.304688 222.808594 257.921875 222.65625 258.546875 222.53125 C 259.171875 222.40625 259.804688 222.316406 260.4375 222.253906 C 261.070312 222.191406 261.707031 222.160156 262.34375 222.160156 C 262.984375 222.160156 263.617188 222.191406 264.253906 222.253906 C 264.886719 222.316406 265.519531 222.40625 266.144531 222.53125 C 266.769531 222.65625 267.386719 222.808594 267.996094 222.996094 C 268.605469 223.179688 269.207031 223.394531 269.796875 223.636719 C 270.382812 223.878906 270.960938 224.152344 271.523438 224.453125 C 272.085938 224.75 272.628906 225.078125 273.160156 225.433594 C 273.691406 225.785156 274.203125 226.164062 274.695312 226.566406 C 275.1875 226.972656 275.660156 227.398438 276.109375 227.847656 C 276.5625 228.296875 276.988281 228.769531 277.394531 229.257812 C 277.796875 229.75 278.175781 230.261719 278.53125 230.789062 C 278.886719 231.320312 279.214844 231.863281 279.515625 232.425781 C 279.816406 232.984375 280.085938 233.558594 280.332031 234.148438 C 280.574219 234.734375 280.789062 235.335938 280.972656 235.941406 C 281.160156 236.550781 281.3125 237.167969 281.4375 237.792969 C 281.5625 238.414062 281.65625 239.042969 281.71875 239.675781 C 281.78125 240.308594 281.8125 240.945312 281.8125 241.582031 Z M 281.8125 241.582031 " fill-opacity="0.9686" fill-rule="nonzero"/><g clip-path="url(#fe50a64de5)"><path fill="#fff" d="M 167.96875 198.5 L 167.96875 397.621094 L 434.078125 397.621094 L 434.078125 198.5 Z M 184.597656 211.773438 L 417.445312 211.773438 L 417.445312 384.34375 L 184.597656 384.34375 Z M 184.597656 211.773438 " fill-opacity="1" fill-rule="nonzero"/></g><g clip-path="url(#8103d19711)"><path fill="#fff" d="M 133.089844 167.957031 L 133.089844 367.078125 L 159.699219 367.078125 L 159.699219 353.800781 L 149.722656 353.800781 L 149.722656 181.230469 L 382.566406 181.230469 L 382.566406 191.429688 L 399.199219 191.429688 L 399.199219 167.957031 Z M 133.089844 167.957031 " fill-opacity="1" fill-rule="nonzero"/></g></svg>